<svg aria-hidden="true" style="position:absolute;width:0;height:0;overflow:hidden" xmlns="http://www.w3.org/2000/svg">
  <defs>
    <symbol id="icon-call" viewBox="0 0 32 32">
      <path fill="none" stroke="#ff3839" style="stroke:var(--color1, #ff3839)" stroke-miterlimit="10" stroke-width="2" d="M29.293 24.44c0 .48-.107.973-.333 1.453s-.52.933-.907 1.36c-.653.72-1.373 1.24-2.187 1.573-.8.333-1.667.507-2.6.507-1.36 0-2.813-.32-4.347-.973s-3.067-1.533-4.587-2.64a38.332 38.332 0 0 1-4.373-3.733 37.98 37.98 0 0 1-3.72-4.36c-1.093-1.52-1.973-3.04-2.613-4.547-.64-1.52-.96-2.973-.96-4.36 0-.907.16-1.773.48-2.573.32-.813.827-1.56 1.533-2.227.853-.84 1.787-1.253 2.773-1.253.373 0 .747.08 1.08.24.347.16.653.4.893.747l3.093 4.36c.24.333.413.64.533.933.12.28.187.56.187.813 0 .32-.093.64-.28.947a4.52 4.52 0 0 1-.747.947l-1.013 1.053a.712.712 0 0 0-.213.533c0 .107.013.2.04.307.04.107.08.187.107.267.24.44.653 1.013 1.24 1.707.6.693 1.24 1.4 1.933 2.107.72.707 1.413 1.36 2.12 1.96.693.587 1.267.987 1.72 1.227.067.027.147.067.24.107a.92.92 0 0 0 .333.053c.227 0 .4-.08.547-.227l1.013-1c.333-.333.653-.587.96-.747.307-.187.613-.28.947-.28.253 0 .52.053.813.173s.6.293.933.52l4.413 3.133c.347.24.587.52.733.853.133.333.213.667.213 1.04z"/>
    </symbol>
    <symbol id="icon-development" viewBox="0 0 32 32">
      <path fill="#fff" style="fill:var(--color2, #fff)" d="M26.561 5.878H5.439c-1.561 0-2.827 1.546-2.827 3.453v17.257c0 1.907 1.266 3.453 2.827 3.453h21.122c1.561 0 2.827-1.546 2.827-3.453V9.331c0-1.907-1.266-3.453-2.827-3.453z"/>
      <path fill="#202020" style="fill:var(--color3, #202020)" d="M26.567 30.933H5.432c-.875-.001-1.713-.43-2.332-1.194s-.966-1.799-.967-2.879V9.405c.001-1.08.349-2.115.967-2.879s1.457-1.193 2.332-1.194h21.135c.875.001 1.713.43 2.332 1.194s.966 1.799.967 2.879V26.86c-.001 1.08-.349 2.115-.967 2.879s-1.457 1.193-2.332 1.194zM5.433 6.497c-.625.001-1.224.308-1.665.853s-.69 1.285-.691 2.056v17.455c.001.771.249 1.511.691 2.056s1.041.852 1.665.853h21.135c.625-.001 1.224-.308 1.666-.853s.69-1.285.691-2.056V9.406c-.001-.771-.249-1.511-.691-2.056s-1.041-.852-1.666-.853H5.433z"/>
      <path fill="#ff3839" style="fill:var(--color1, #ff3839)" d="M5.12 8.499a.582.582 0 1 0 0-1.164.582.582 0 0 0 0 1.164zM7.094 8.499a.582.582 0 1 0 0-1.164.582.582 0 0 0 0 1.164zM9.072 8.499a.582.582 0 1 0 0-1.164.582.582 0 0 0 0 1.164zM26.832 8.397H21.44a.48.48 0 0 1 0-.96h5.392a.48.48 0 0 1 0 .96zM14.029 23.77a.474.474 0 0 1-.407-.228.485.485 0 0 1-.021-.467l3.914-7.875a.48.48 0 1 1 .861.426l-3.917 7.878a.48.48 0 0 1-.429.266zM20.109 22.199a.467.467 0 0 1-.4-.215.466.466 0 0 1-.001-.53.488.488 0 0 1 .132-.132l3.04-2.022-2.845-1.891a.478.478 0 0 1-.134-.666.478.478 0 0 1 .666-.134l3.434 2.291a.486.486 0 0 1 .215.4.487.487 0 0 1-.215.4l-3.626 2.419a.483.483 0 0 1-.266.08zM11.891 22.199a.485.485 0 0 1-.266-.08L7.999 19.7a.486.486 0 0 1-.215-.4.487.487 0 0 1 .215-.4l3.443-2.291a.484.484 0 0 1 .666.134.484.484 0 0 1-.134.666L9.12 19.3l3.04 2.022a.488.488 0 0 1 .203.304.485.485 0 0 1-.244.517.464.464 0 0 1-.228.056z"/>
      <path fill="#202020" style="fill:var(--color3, #202020)" d="M29.638 9.226H2.358v.96h27.28v-.96z"/>
    </symbol>
    <symbol id="icon-facebook" viewBox="0 0 32 32">
      <path fill="#fff" style="fill:var(--color2, #fff)" d="M18.261 18.604V32h-6.479V18.604H6.399v-5.432h5.383v-1.976c0-7.337 3.227-11.195 10.055-11.195 2.093 0 2.616.32 3.763.58v5.373c-1.283-.213-1.645-.331-2.978-.331-1.582 0-2.43.426-3.202 1.266s-1.159 2.296-1.159 4.379v1.917H25.6l-1.969 5.432h-5.37v-.012z"/>
    </symbol>
    <symbol id="icon-instagram" viewBox="0 0 32 32">
      <path fill="#fff" style="fill:var(--color2, #fff)" d="M25.805 30.983H5.179A5.192 5.192 0 0 1 0 25.804V5.178A5.192 5.192 0 0 1 5.179-.001h20.626a5.192 5.192 0 0 1 5.179 5.179v20.626a5.176 5.176 0 0 1-5.179 5.179z"/>
      <path style="fill:var(--color4, #000)" d="M15.498 23.451c-2.125 0-4.123-.827-5.624-2.329s-2.329-3.499-2.329-5.624.827-4.123 2.329-5.624c1.501-1.501 3.499-2.329 5.624-2.329s4.123.827 5.624 2.329c1.501 1.501 2.329 3.499 2.329 5.624s-.827 4.123-2.329 5.624a7.921 7.921 0 0 1-5.624 2.329zm0-14.213a6.264 6.264 0 0 0-6.26 6.26 6.264 6.264 0 0 0 6.26 6.26 6.264 6.264 0 0 0 6.26-6.26c-.013-3.448-2.812-6.26-6.26-6.26zM25.001 7.284a1.527 1.527 0 1 0 0-3.055 1.527 1.527 0 0 0 0 3.055z"/>
    </symbol>
    <symbol id="icon-linkedIn" viewBox="0 0 32 32">
      <path fill="#fff" style="fill:var(--color2, #fff)" d="M6.952 10.123H.519v20.514h6.433V10.123zM24.352 9.679c-.237-.03-.489-.044-.741-.059-3.602-.148-5.632 1.986-6.344 2.905-.193.252-.282.4-.282.4v-2.742h-6.151v20.514h6.433v-9.634c0-1.393-.104-2.876.593-4.15.593-1.067 1.66-1.601 2.861-1.601 3.557 0 3.631 3.216 3.631 3.513v11.962h6.433V17.403c0-4.58-2.327-7.278-6.433-7.722zM3.735 7.47a3.735 3.735 0 1 0 0-7.47 3.735 3.735 0 0 0 0 7.47z"/>
    </symbol>
    <symbol id="icon-location" viewBox="0 0 32 32">
      <path fill="none" stroke="#ff3839" style="stroke:var(--color1, #ff3839)" stroke-width="2" d="M16 17.907a4.16 4.16 0 1 0 0-8.32 4.16 4.16 0 0 0 0 8.32z"/>
      <path fill="none" stroke="#ff3839" style="stroke:var(--color1, #ff3839)" stroke-width="2" d="M4.827 11.32C7.454-.227 24.56-.213 27.174 11.333c1.533 6.773-2.68 12.507-6.373 16.053a6.924 6.924 0 0 1-9.613 0c-3.68-3.547-7.893-9.293-6.36-16.067z"/>
    </symbol>
    <symbol id="icon-sms" viewBox="0 0 32 32">
      <path fill="none" stroke="#ff3839" style="stroke:var(--color1, #ff3839)" stroke-linejoin="round" stroke-linecap="round" stroke-miterlimit="10" stroke-width="2" d="M22.667 27.333H9.334c-4 0-6.667-2-6.667-6.667v-9.333c0-4.667 2.667-6.667 6.667-6.667h13.333c4 0 6.667 2 6.667 6.667v9.333c0 4.667-2.667 6.667-6.667 6.667z"/>
      <path fill="none" stroke="#ff3839" style="stroke:var(--color1, #ff3839)" stroke-linejoin="round" stroke-linecap="round" stroke-miterlimit="10" stroke-width="2" d="m22.667 12-4.173 3.333c-1.373 1.093-3.627 1.093-5 0L9.334 12"/>
    </symbol>
    <symbol id="icon-speed" viewBox="0 0 32 32">
      <path fill="#fff" style="fill:var(--color2, #fff)" d="M22.902 20.272a11.44 11.44 0 0 1 3.657 8.227 1.176 1.176 0 0 1-.674 1.06 1.176 1.176 0 0 1-1.245-.16l-4.48-3.798z"/>
      <path fill="#ff3839" style="fill:var(--color1, #ff3839)" d="M25.37 30.163a1.638 1.638 0 0 1-1.072-.403l-4.458-3.811.64-.73 4.442 3.814a.686.686 0 0 0 .744.107.695.695 0 0 0 .402-.635 10.947 10.947 0 0 0-3.495-7.881l.64-.704a11.91 11.91 0 0 1 3.814 8.56 1.64 1.64 0 0 1-.96 1.514 1.692 1.692 0 0 1-.698.17z"/>
      <path fill="#fff" style="fill:var(--color2, #fff)" d="M8.64 20.272a11.55 11.55 0 0 0-3.2 5.248 11.326 11.326 0 0 0-.432 2.979 1.176 1.176 0 0 0 .674 1.06 1.176 1.176 0 0 0 1.245-.16l4.461-3.798z"/>
      <path fill="#ff3839" style="fill:var(--color1, #ff3839)" d="M6.186 30.163c-.244 0-.486-.053-.707-.157a1.628 1.628 0 0 1-.96-1.513 11.895 11.895 0 0 1 3.802-8.573l.656.704a10.975 10.975 0 0 0-3.078 5.027 10.857 10.857 0 0 0-.416 2.854.69.69 0 0 0 1.143.528l4.451-3.814.64.73-4.458 3.811a1.638 1.638 0 0 1-1.072.403z"/>
      <path fill="#fff" style="fill:var(--color2, #fff)" d="M19.443 25.6h-7.331a3.02 3.02 0 0 1-2.992-2.624l-.445-3.43a22.622 22.622 0 0 1 3.709-15.805c.115-.166.234-.32.352-.496l1.219-1.667a2.237 2.237 0 0 1 1.823-.937 2.24 2.24 0 0 1 1.823.937l1.219 1.667c.118.163.237.32.352.496a22.659 22.659 0 0 1 3.709 15.805l-.448 3.414a3.013 3.013 0 0 1-2.988 2.64z"/>
      <path fill="#202020" style="fill:var(--color3, #202020)" d="M19.443 26.064h-7.331a3.503 3.503 0 0 1-3.472-3.043l-.448-3.414A23.063 23.063 0 0 1 12.348 2.96l1.216-1.68a2.736 2.736 0 0 1 3.451-.826c.384.195.717.478.971.826l1.213 1.68c.122.166.24.336.358.506a23.065 23.065 0 0 1 3.802 16.141l-.448 3.414a3.5 3.5 0 0 1-3.469 3.043zM15.776 1.13a1.745 1.745 0 0 0-1.433.73l-1.222 1.661-.346.486a22.095 22.095 0 0 0-3.622 15.475l.448 3.414a2.542 2.542 0 0 0 2.515 2.208h7.328a2.56 2.56 0 0 0 2.515-2.208l.442-3.414a22.097 22.097 0 0 0-3.626-15.469c-.112-.163-.227-.32-.342-.486L17.214 1.86a1.762 1.762 0 0 0-1.437-.73z"/>
      <path fill="#ff3839" style="fill:var(--color1, #ff3839)" d="M15.776 15.843a4.318 4.318 0 0 1-3.055-7.366 4.315 4.315 0 0 1 6.642.647c.475.709.729 1.543.731 2.397 0 1.145-.455 2.244-1.264 3.055s-1.907 1.267-3.053 1.268zm0-7.68a3.356 3.356 0 0 0-2.373 5.731 3.352 3.352 0 0 0 5.164-.508 3.364 3.364 0 0 0 .566-1.865 3.352 3.352 0 0 0-3.356-3.351v-.006zM15.776 30.512a.48.48 0 0 1-.48-.48v-3.104a.48.48 0 0 1 .96 0v3.104a.48.48 0 0 1-.48.48zM13.536 31.709a.48.48 0 0 1-.48-.48V28.48a.48.48 0 0 1 .96 0v2.758a.476.476 0 0 1-.48.47zM18.016 31.709a.48.48 0 0 1-.48-.48V28.48a.48.48 0 0 1 .96 0v2.758a.48.48 0 0 1-.48.47z"/>
    </symbol>
    <symbol id="icon-twitter" viewBox="0 0 32 32">
      <path fill="#fff" style="fill:var(--color2, #fff)" d="M0 26.071c3.445.196 6.457-.618 9.394-2.774-2.967-.513-5.025-1.885-6.144-4.719.865-.121 1.625.106 2.52-.256C2.847 17.025.954 15.08.879 11.718c.925.075 1.625.694 2.729.603C.924 9.667.104 6.773 1.789 3.26c2.803 3.257 6.084 5.473 10.095 6.513.224.06.432.121.656.166 1.029.241 2.252.754 2.878.678 1.074-.136 0-1.387.268-3.015.85-5.066 6.367-7.373 10.453-4.402 1.193.874 2.132.859 3.31.332.611-.271 1.238-.543 1.968-.859-.164 1.447-1.268 2.246-2.147 3.317.999.226 1.804-.06 2.729-.362-.313 1.04-1.089 1.628-1.789 2.201-.731.588-1.014 1.206-1.044 2.171-.447 14.61-16.865 25.902-28.093 16.916-1.089-.875-.03 0-1.074-.844z"/>
    </symbol>
    <symbol id="icon-design" viewBox="0 0 32 32">
      <path fill="#fff" style="fill:var(--color2, #fff)" d="M17.274 1.421H6.452a2.163 2.163 0 0 0-2.163 2.163v24.707c0 1.195.968 2.163 2.163 2.163h10.822a2.163 2.163 0 0 0 2.163-2.163V3.584a2.162 2.162 0 0 0-2.163-2.163z"/>
      <path fill="#202020" style="fill:var(--color3, #202020)" d="M17.28 30.934H6.451a2.648 2.648 0 0 1-2.643-2.643V3.587A2.647 2.647 0 0 1 6.451.941H17.28a2.65 2.65 0 0 1 2.643 2.646v24.704a2.648 2.648 0 0 1-2.643 2.643zM6.451 1.901a1.685 1.685 0 0 0-1.683 1.686v24.704a1.684 1.684 0 0 0 1.683 1.683H17.28a1.684 1.684 0 0 0 1.683-1.683V3.587a1.683 1.683 0 0 0-1.683-1.686H6.451z"/>
      <path fill="#202020" style="fill:var(--color3, #202020)" d="M14.006 4.189H9.718a2.083 2.083 0 0 1-2.077-2.077V.941h8.442v1.171a2.083 2.083 0 0 1-2.077 2.077zM8.602 1.901v.211a1.12 1.12 0 0 0 1.117 1.117h4.288a1.12 1.12 0 0 0 1.117-1.117v-.211H8.602z"/>
      <path fill="#ff3839" style="fill:var(--color1, #ff3839)" d="M17.504 6.528H6.221a.48.48 0 0 1 0-.96h11.283a.48.48 0 0 1 0 .96zM17.504 8.269H6.221a.48.48 0 0 1 0-.96h11.283a.48.48 0 0 1 0 .96zM17.504 9.99h-4.256a.48.48 0 0 1 0-.96h4.256a.48.48 0 0 1 0 .96z"/>
      <path fill="#fff" style="fill:var(--color2, #fff)" d="M29.456 21.437h-4.157c-.576 0-1.043.467-1.043 1.043v.269c0 .576.467 1.043 1.043 1.043h4.157c.576 0 1.043-.467 1.043-1.043v-.269c0-.576-.467-1.043-1.043-1.043z"/>
      <path fill="#202020" style="fill:var(--color3, #202020)" d="M29.44 24.272h-4.16a1.526 1.526 0 0 1-1.523-1.526v-.266a1.522 1.522 0 0 1 1.523-1.523h4.16a1.527 1.527 0 0 1 1.523 1.523v.266a1.524 1.524 0 0 1-1.523 1.526zm-4.16-2.355a.56.56 0 0 0-.563.563v.266a.563.563 0 0 0 .563.566h4.16a.565.565 0 0 0 .563-.566v-.266a.56.56 0 0 0-.563-.563h-4.16z"/>
      <path fill="#fff" style="fill:var(--color2, #fff)" d="M29.456 15.152h-4.157c-.576 0-1.043.467-1.043 1.043v.269c0 .576.467 1.043 1.043 1.043h4.157c.576 0 1.043-.467 1.043-1.043v-.269c0-.576-.467-1.043-1.043-1.043z"/>
      <path fill="#202020" style="fill:var(--color3, #202020)" d="M29.44 17.987h-4.16a1.526 1.526 0 0 1-1.523-1.526v-.266a1.522 1.522 0 0 1 1.523-1.523h4.16a1.527 1.527 0 0 1 1.523 1.523v.266a1.524 1.524 0 0 1-1.523 1.526zm-4.16-2.355a.56.56 0 0 0-.563.563v.266a.57.57 0 0 0 .347.523.552.552 0 0 0 .216.043h4.16a.57.57 0 0 0 .399-.166.569.569 0 0 0 .164-.4v-.266a.56.56 0 0 0-.563-.563h-4.16z"/>
      <path fill="#fff" style="fill:var(--color2, #fff)" d="M29.456 10.784h-4.157c-.576 0-1.043.467-1.043 1.043v.269c0 .576.467 1.043 1.043 1.043h4.157c.576 0 1.043-.467 1.043-1.043v-.269c0-.576-.467-1.043-1.043-1.043z"/>
      <path fill="#202020" style="fill:var(--color3, #202020)" d="M29.44 13.619h-4.16a1.526 1.526 0 0 1-1.523-1.526v-.253a1.522 1.522 0 0 1 1.523-1.523h4.16a1.528 1.528 0 0 1 1.536 1.522v.266a1.523 1.523 0 0 1-1.536 1.513zm-4.16-2.355a.56.56 0 0 0-.544.576v.266a.563.563 0 0 0 .563.566h4.141a.565.565 0 0 0 .563-.566v-.266a.571.571 0 0 0-.16-.407.551.551 0 0 0-.402-.169h-4.16zM20.227 27.84h-2.723v-.96h2.723a.689.689 0 0 0 .685-.685v-2.419a1.643 1.643 0 0 1 1.642-1.642h1.702v.96h-1.702a.686.686 0 0 0-.682.682v2.41a1.65 1.65 0 0 1-1.013 1.527 1.65 1.65 0 0 1-.631.127zM15.645 26.173h-.96v-8.682a1.648 1.648 0 0 1 1.635-1.642h7.936v.96H16.32a.687.687 0 0 0-.685.681l.01 8.682z"/>
      <path fill="#202020" style="fill:var(--color3, #202020)" d="M12.342 26.173h-.96V13.12a1.647 1.647 0 0 1 1.645-1.642h11.229v.96H13.027a.687.687 0 0 0-.685.681v13.053z"/>
      <path fill="#fff" style="fill:var(--color2, #fff)" d="M16.461 26.173H7.264c-.576 0-1.043.467-1.043 1.043v.269c0 .576.467 1.043 1.043 1.043h9.197c.576 0 1.043-.467 1.043-1.043v-.269c0-.576-.467-1.043-1.043-1.043z"/>
      <path fill="#ff3839" style="fill:var(--color1, #ff3839)" d="M16.458 29.008H7.264a1.526 1.526 0 0 1-1.523-1.526v-.266a1.527 1.527 0 0 1 1.523-1.523h9.194a1.524 1.524 0 0 1 1.526 1.523v.266a1.529 1.529 0 0 1-1.526 1.526zm-9.194-2.355a.56.56 0 0 0-.563.563v.266a.563.563 0 0 0 .563.566h9.194a.579.579 0 0 0 .401-.166.571.571 0 0 0 .166-.401v-.266a.57.57 0 0 0-.166-.399.569.569 0 0 0-.4-.164H7.265z"/>
    </symbol>
    <symbol id="icon-wireframing" viewBox="0 0 32 32">
      <path fill="#fff" style="fill:var(--color2, #fff)" d="M29.126 4.195H3.014a.72.72 0 0 0-.72.72v22.166c0 .398.322.72.72.72h26.112a.72.72 0 0 0 .72-.72V4.915a.72.72 0 0 0-.72-.72z"/>
      <path fill="#202020" style="fill:var(--color3, #202020)" d="M29.12 28.285H3.018c-.319-.001-.624-.128-.85-.353s-.353-.531-.353-.85V4.919c.001-.319.128-.624.353-.85s.531-.353.85-.353H29.12a1.202 1.202 0 0 1 1.2 1.204v22.163a1.204 1.204 0 0 1-1.2 1.204zM3.018 4.675c-.065 0-.126.026-.172.071s-.071.107-.071.172v22.163c0 .065.026.126.071.172s.107.071.172.071H29.12a.242.242 0 0 0 .24-.243V4.918a.244.244 0 0 0-.24-.243H3.018z"/>
      <path fill="#ff3839" style="fill:var(--color1, #ff3839)" d="M5.082 6.797a.586.586 0 1 0 0-1.172.586.586 0 0 0 0 1.172zM7.078 6.797a.586.586 0 1 0 0-1.172.586.586 0 0 0 0 1.172zM9.072 6.797a.586.586 0 1 0 0-1.172.586.586 0 0 0 0 1.172zM27.011 6.691h-5.44a.48.48 0 0 1 0-.96h5.44a.48.48 0 0 1 0 .96z"/>
      <path fill="#202020" style="fill:var(--color3, #202020)" d="M29.846 7.536H2.294v.96h27.552v-.96z"/>
      <path fill="#fff" style="fill:var(--color2, #fff)" d="M27.814 9.789H4.291a.288.288 0 0 0-.288.288v2.906c0 .159.129.288.288.288h23.523a.288.288 0 0 0 .288-.288v-2.906a.288.288 0 0 0-.288-.288z"/>
      <path fill="#202020" style="fill:var(--color3, #202020)" d="M27.814 13.587H4.291a.609.609 0 0 1-.608-.608v-2.902a.609.609 0 0 1 .608-.608h23.523a.611.611 0 0 1 .608.608v2.902a.611.611 0 0 1-.608.608zm-23.491-.64h23.459v-2.838H4.323v2.838z"/>
      <path fill="#fff" style="fill:var(--color2, #fff)" d="M27.811 15.283h-8.563a.288.288 0 0 0-.288.288v10.336c0 .159.129.288.288.288h8.563a.288.288 0 0 0 .288-.288V15.571a.288.288 0 0 0-.288-.288z"/>
      <path fill="#202020" style="fill:var(--color3, #202020)" d="M27.814 26.515h-8.563a.615.615 0 0 1-.612-.595V15.571a.613.613 0 0 1 .611-.608h8.563a.611.611 0 0 1 .608.608V25.92a.612.612 0 0 1-.608.595zm-8.534-.64h8.502V15.603H19.28v10.272z"/>
      <path fill="#fff" style="fill:var(--color2, #fff)" d="M16.515 23.533H7.952a.288.288 0 0 0-.288.288v1.542c0 .159.129.288.288.288h8.563a.288.288 0 0 0 .288-.288v-1.542a.288.288 0 0 0-.288-.288z"/>
      <path fill="#202020" style="fill:var(--color3, #202020)" d="M16.518 25.968H7.952a.611.611 0 0 1-.608-.608v-1.539a.611.611 0 0 1 .608-.608h8.566a.611.611 0 0 1 .608.608v1.539a.611.611 0 0 1-.608.608zM8 25.328h8.486v-1.475H8v1.475z"/>
      <path fill="#ff3839" style="fill:var(--color1, #ff3839)" d="M16.806 16.842h-5.44a.48.48 0 0 1 0-.96h5.44a.48.48 0 0 1 0 .96zM16.806 18.746H5.523a.32.32 0 0 1 0-.64h11.283a.32.32 0 0 1 0 .64zM16.806 20.211H5.523a.32.32 0 0 1 0-.64h11.283a.32.32 0 0 1 0 .64zM16.806 21.635h-8.32a.32.32 0 0 1 0-.64h8.32a.32.32 0 0 1 0 .64z"/>
      <path fill="#202020" style="fill:var(--color3, #202020)" d="m27.519 15.219-8.36 10.495.501.399 8.36-10.495-.501-.399z"/>
      <path fill="#202020" style="fill:var(--color3, #202020)" d="m19.447 15.379-.495.406 8.557 10.418.495-.406-8.557-10.418zM28.111 9.933 3.714 12.786l.037.318 24.397-2.853-.037-.318z"/>
      <path fill="#202020" style="fill:var(--color3, #202020)" d="m3.75 9.94-.037.318 24.398 2.845.037-.318L3.75 9.94z"/>
    </symbol>
  </defs>
</svg>
